<?xml version="1.0" encoding="utf-8"?>
<!-- Generator: Adobe Illustrator 26.3.1, SVG Export Plug-In . SVG Version: 6.00 Build 0)  -->
<svg version="1.1" id="Layer_1" xmlns="http://www.w3.org/2000/svg" xmlns:xlink="http://www.w3.org/1999/xlink" x="0px" y="0px"
	 viewBox="0 0 792 612" style="enable-background:new 0 0 792 612;" xml:space="preserve">
<style type="text/css">
	.st0{fill:#62C7CE;}
	.st1{fill:#00A651;}
	.st2{stroke:#FFF200;stroke-miterlimit:10;}
	.st3{stroke:#FFF200;stroke-width:2;stroke-miterlimit:10;}
	.st4{fill:none;stroke:#000000;stroke-width:23;stroke-miterlimit:10;}
	.st5{fill:none;stroke:#FFFFFF;stroke-miterlimit:10;}
	.st6{fill:#FFF200;}
	.st7{fill:none;}
	.st8{font-family:'PoorRichard-Regular';}
	.st9{font-size:21px;}
</style>
<g>
	<g>
		<ellipse class="st0" cx="379.74" cy="264.32" rx="238.8" ry="215.09"/>
		<path d="M626.32,264.32c0.08,130.46-121.98,224.26-246.59,222.58c-124.59,1.35-246.14-92.12-245.98-222.58
			C133.48,134.04,255.32,40.27,379.74,41.74C504.52,40.19,626.28,133.68,626.32,264.32L626.32,264.32z M610.75,264.32
			c1.08-87.99-64.76-165.34-146.06-193.01c-138.72-51.06-314.42,35.3-316.57,193.01c2.16,157.72,177.84,244.06,316.57,193.01
			C545.98,429.66,611.85,352.31,610.75,264.32L610.75,264.32z"/>
	</g>
	<g>
		<path d="M403.69,473.18c-13.39,22.99-15.75,52.06-12.61,77.93c1.66,11,5.32,21.32,11.33,31.17c3.29,5.2,6.98,10.39,12.65,15.59
			h-70.66c9.9-9.36,15.75-19.43,20.1-31.17c3.7-10.18,4.83-20.55,5.09-31.17c0.43-18.46-2.15-37.4-9.71-54.55
			c-1.19-2.6-2.44-5.2-4.1-7.79H403.69L403.69,473.18z"/>
	</g>
	<g>
		<path d="M514.61,575.43c-0.14,12.41-23.63,17.04-33.02,19.46c-44.67,9.55-90.45,11.24-135.92,9.61
			c-22.9-1.04-45.59-2.96-68.18-7.71c-8.88-2.04-17.85-4.1-26.14-8.85c-6.14-3.37-11.18-10.55-7.3-17.84
			c7.69-14.91,51.79-18.73,67.62-20.52c56.65-4.55,113.9-3.99,169.85,6.73C491.13,558.64,514.34,562.95,514.61,575.43L514.61,575.43
			z M504.43,575.43c-32.56-23.57-208.47-20.38-245.66-0.08c-0.86,0.51-1.57,1.08-1.82,1.37c-0.15,0.15-0.13,0.19-0.02,0
			c0.1-0.18,0.29-0.69,0.29-1.29c0.01-0.6-0.17-1.11-0.27-1.3c1.61,1.44,5.24,3.1,8.27,4.15c15.28,5.1,31.74,7.12,47.93,8.91
			c33.16,3.44,66.68,4.07,100.01,3.18c22.11-0.66,44.49-2.01,66.18-6.09c5.36-1.08,10.68-2.32,15.63-4.03
			c3.47-1.32,7.21-2.56,9.49-5.13C504.48,575.06,504.42,575.22,504.43,575.43L504.43,575.43z"/>
	</g>
	<path class="st1" d="M267.89,289.29c-1.94,1.53-1.3,3.78-1.38,7.08c-0.24,10.29-7.07,18.76-7.8,18.6c-0.59-0.14,1.2-6.41,1.42-6.38
		c0.25,0.03-1.67,7.73-2.5,19.07c-0.85,11.48,0.73,8.8-0.23,15.46c-0.46,3.2-1.02,5.18,0.54,7.01c2.57,3,7.35,1.42,10.77,4.46
		c2.92,2.6,0.71,4.9,3.11,9c2.72,4.64,7.3,4.64,10.95,7.96c4.39,3.99,2.97,8.72,1.99,20.99c-0.46,5.68-0.35,14.09-0.12,30.91
		c0.18,14.03,0.9,18.9,3.66,19.51c4.26,0.94,10.91-8.79,13.64-7.61c0.67,0.29,0.83,2.05,1.17,5.57c0.11,1.14,0.16,2.02,0.26,4.91
		c0.2,5.85,0.14,6.47-0.51,7.05c-1.6,1.43-5.97,1.83-7.88,0.34c-5.36-4.19,12.14-20.48,12.2-34.94c0.01-1.13-0.09-4.37,1.31-8.49
		c1.34-3.94,3.14-6.02,4.81-8.64c6.01-9.38,6.29-19.17,6.01-19.22c-0.21-0.04-2.24,4.69-1.49,4.98c1.08,0.42,9.36-7.7,12.21-18.08
		c2.4-8.75,0.13-16.16,0.03-16.16c-0.08,0,0.71,4.18-0.36,9.85c-1.13,5.98-3.93,11.58-4.66,11.44c-1.97-0.37,8.11-42.66,9.17-42.54
		c0.37,0.04,0.29,5.34-1.46,5.68c-2.61,0.51-4.23-10.98-15.2-21.83c-5.38-5.32-7.56-5.1-27.35-19.2c-3.91-2.79-7.07-5.11-9.13-6.63
		C276.38,288.11,270.65,287.11,267.89,289.29z"/>
	<path class="st1" d="M258.42,277.97c-0.96,0.25-1.32-0.15-5.3-1.49c-4.28-1.44-6.44-1.86-7.57-2.24
		c-8.82-2.95-12.88-23.1-12.88-23.1c0,0,0.4,1.84,2.27,6.71c2.19,5.71,4.45,10.47,4.54,10.43c0.14-0.06-5.4-10.09-9.09-24.59
		c-1.74-6.82-1.15-7.11-3.03-13.41c-2.45-8.23-4.28-10.53-4.54-16.39c-0.05-1.14-0.19-5.68,1.51-11.18
		c2.32-7.47,5.26-7.78,6.82-13.41c2.5-9.04-2.44-17.84-2.27-17.88c0.13-0.03,2.26,5.61,1.51,5.96c-1.49,0.7-13.87-19.56-12.12-20.86
		c0.6-0.45,2.99,1.27,8.33,6.71c-0.06-0.01-20.76-3-20.78-3.01c0,0-5-0.72-4.97-0.72l0,0c-4.7-8.19-4.54-9.69-4.54-9.69
		c0.44-4.23,5.84-7.17,9.09-8.94c3.5-1.91,4.51-1.48,8.33-3.73c4.23-2.49,3.66-3.4,6.82-5.22c4.45-2.55,9.05-2.71,16.66-2.98
		c1.65-0.06,0.68,0.03,7.57,0c8.06-0.03,8.51-0.15,10.6,0c4.54,0.32,7.89,1.25,11.36,2.24c9.14,2.59,9.45,4.48,12.88,4.47
		c9.11-0.03,18.37-13.45,15.91-17.14c-2.72-4.07-20.56,2.45-20.45,2.98c0.1,0.48,15.96-0.81,31.81-8.2
		c3.52-1.64,6.35-3.26,8.33-4.47c7.3-1.4,16.84-3.19,28.02-5.22c21.61-3.91,30.34-5.23,31.81-2.24c1.04,2.12-2.55,4.38-9.09,16.39
		c-3.48,6.4-2.71,6.2-4.54,8.94c-7.32,10.93-21.05,16.16-22.72,14.16c-1.12-1.34,3-6.17,2.27-6.71c-0.79-0.58-4.47,5.86-11.36,7.45
		c-4.16,0.96-6.94-0.44-7.57,0.75c-1.25,2.34,9.38,8,8.33,11.18c-1.56,4.72-28.41,2.46-28.78-1.49c-0.2-2.08,6.95-4.61,7.57-3.73
		c0.84,1.18-10.77,7.32-9.85,13.41c1.05,6.91,17.3,7.65,17.42,12.67c0.11,4.32-11.95,4.33-20.45,14.9
		c-3.77,4.69-1.51,4.83-7.57,14.9c-5.74,9.53-8.61,10.8-9.85,17.14c-0.66,3.35-0.7,7.34-0.76,11.92c-0.08,7.02,0.55,6.78,0,8.94
		c-1.48,5.82-5.62,5.88-9.85,13.41c-1.05,1.88-1.97,4.48-3.79,9.69C261.62,273.46,261.06,277.29,258.42,277.97z"/>
	<path class="st1" d="M371.5,207.63c-3.33,0.61-4.22,1.96-12.04,7.52c-10.4,7.39-10.96,6.51-14.22,9.78
		c-6.06,6.06-7.29,12.28-7.66,14.29c-0.94,5.16,0.86,5.29,1.09,15.04c0.19,7.93-0.99,8.39,0,12.79c0.94,4.17,2.31,5.12,6.57,12.79
		c7.16,12.89,6.8,16.52,10.94,17.3c5.63,1.06,8.78-5.17,18.6-5.26c5.88-0.06,12,2.1,15.32,5.26c3.96,3.78,0.89,6.09,3.28,14.29
		c2.39,8.16,6.21,8.54,6.57,15.04c0.22,3.99-1.24,3.61-2.19,11.28c-0.63,5.07-1.05,8.45,0,12.79c1.18,4.88,2.9,5.54,4.38,11.28
		c1.09,4.25,1.04,7.33,1.09,9.03c0.44,14.7,11.71,30.64,10.94,30.84c-0.35,0.09-2.4-3.26-5.47-8.27c-4.82-7.86-4.54-8.2-4.38-8.27
		c1.93-0.85,19.07,21.53,30.64,19.55c5.57-0.95,8.05-7.25,8.75-9.03c1.63-4.13,0.72-7.77-1.09-15.04c-1.46-5.83-2.34-6.21-2.19-9.03
		c0.18-3.44,1.69-6.52,5.47-11.28c9-11.33,13.93-10.84,16.41-16.55c3.46-7.95-5.49-10.31-4.38-20.31
		c1.02-9.16,8.84-9.98,15.32-21.81c2.47-4.52,8.72-15.91,3.28-27.83c-0.33-0.73-1.68-3.58-4.56-7
		c-8.88-10.53-24.3-16.79-26.08-15.56c-1.86,1.29,9.88,11.7,10.94,11.28c1.72-0.68-29.76-38.12-27.36-39.11
		c0.98-0.4,7.55,5.26,6.57,6.02c-1,0.77-8.67-4.34-24.07-9.78c-9.82-3.46-22.55-6.97-21.88-6.77
		C380.25,206.76,374.1,207.15,371.5,207.63z"/>
	<path class="st1" d="M376.1,187.24c-2-1.9-1.96-5.58-1.52-7.64c1.21-5.69,7.48-8.86,6.83-9.73c-0.62-0.82-6.22,2.17-6.83,1.39
		c-0.81-1.04,9.4-6.01,9.11-11.81c-0.28-5.56-9.94-6.4-11.39-13.2c-1.3-6.12,4.89-13.06,6.83-12.51c0.84,0.24,1.82,2.18,0,13.2
		c6.52,6.28,9.29,6.88,10.63,6.25c1.84-0.87,0.81-4.04,3.04-6.95c2.4-3.15,7.07-3.97,10.63-4.17c-0.93-1.7-2.32-4.33-3.8-7.64
		c-3.04-6.82-3.73-10.39-5.31-10.42c-1.82-0.03-3.49,4.62-3.04,4.86c0.58,0.31,4.89-6.25,14.42-15.28c2.81-2.66,5.3-4.81,9.11-5.56
		c2.51-0.49,3.98-0.06,8.35,0.69c10.77,1.86,16.15,2.79,21.25,2.08c4.79-0.66,7.02-2.09,9.11-0.69c0.96,0.64,1.93,1.91,2.28,6.95
		c0.44,6.34-0.63,11.23-0.76,11.81c0,0-1.68,7.46-7.59,22.23l0,0c0,0,1.68-3.59,2.28-4.86c2.51-5.32,4.49-9.06,4.55-9.03
		c0.12,0.05-12.08,14.26-9.11,29.18c1.76,8.83,7.94,13.38,6.07,15.28c-3.15,3.22-23.27-7.23-22.77-8.34
		c0.24-0.54,5.67,0.27,6.07,2.08c0.52,2.34-7.36,6.23-14.27,7.66c-3.12,0.64-5.61,0.7-6.99,0.68c-5.94-0.09-12.92-1.86-12.9-3.47
		c0.03-2.15,12.49-4.51,12.9-3.47C413.98,178.54,383.03,193.83,376.1,187.24z"/>
	<path class="st1" d="M457.79,122.88L457.79,122.88L457.79,122.88c11.88-10.61,17.62-11.87,20.65-10.75
		c1.61,0.6,3.68,1.91,8.66,4.33c1.26,0.61,2.8,1.2,4.84,1.71c7.49,1.86,16.68,1.34,16.68,1.34c5.94,2.45,10.88,3.16,14.3,3.36
		c6.93,0.4,10.55-1.13,16.68,0.67c3.88,1.14,6.41,2.93,7.94,4.03c8.22,5.91,9.91,13.96,10.32,16.12c0.3,1.57-0.06,0.56,0,10.07
		c0.06,9.29,0.41,12.63-1.59,13.43c-2.31,0.92-6.23-2.17-6.35-2.01c-0.23,0.28,16.14,6.91,15.88,14.1c-0.18,5-8.22,5.4-11.12,12.09
		c-4.21,9.73,7.54,21.01,5.56,22.16c-2.16,1.25-14.9-12.83-17.47-11.42c-1.19,0.66,0.25,4.48,3.18,12.09
		c3.08,8.02,4.05,8.65,3.97,11.42c-0.17,6.45-5.63,11.39-7.15,12.76c-6.59,5.96-13.33,5.99-13.5,9.4c-0.11,2.26,2.84,2.6,6.35,8.06
		c1.08,1.68,2.65,4.18,3.18,7.39c0.74,4.58-0.59,10.99-3.18,11.42c-6.08,1.01-14.75-31.62-25.41-30.89
		c-2.81,0.19-5.31,2.66-8.74,6.04c-0.54,0.54-4.42,4.42-6.35,9.4c-4.12,10.6,2.03,22.24,2.38,22.16c0.48-0.1-1.16-23.27-17.47-37.61
		c-6.58-5.79-14.4-9.76-19.35-10.05c-0.07,0-0.27-0.02-0.51-0.03c-9.36-0.48-11.39,0.4-13.14-0.5c-2.7-1.39-1.98-5.55-1.95-9.58
		c0.08-8.67-3-11.38-5.56-20.82c-3.67-13.55-2.06-25.43-1.52-29.35c1.03-7.56,4.26-21.51,16.61-37.14"/>
	<path class="st1" d="M476.34,380.76c-4.66-8.29,1.22-11.6,2.56-28.65c0.91-11.62-1.16-18.4,3.84-19.97
		c3.92-1.23,6.88,2.41,14.08,1.74c10-0.93,16.25-9.02,16.65-9.55c2.83-3.78,1.54-5.29,5.12-8.68c1.76-1.67,5.22-4.94,10.24-5.21
		c6.92-0.37,13.08,5.16,15.36,9.55c2.36,4.54,0.98,8.66,1.28,8.68c0.7,0.04,4.14-22.63,6.4-22.57c1.71,0.04-2.16,12.88,8.96,20.84
		c4.52,3.23,8.41,3.44,10.24,6.95c2.35,4.48-2.67,6.68-2.56,13.02c0.13,7.22,6.69,7.76,6.4,13.89c-0.17,3.58-4.38,7.6-12.8,15.63
		c-5.05,4.81-6.08,5.17-11.52,10.42c-8.69,8.38-7.37,8.73-10.24,10.42c-11.12,6.53-34.94,3.64-49.94-4.34
		C486.95,391.07,480.01,387.29,476.34,380.76z"/>
	<g>
		<path class="st2" d="M235.68,102.92h13.96l8.25,34.79h0.19l7.48-34.79h12.67l7.58,34.4h0.19l7.87-34.4h14.34l-15.35,57.69h-13.15
			l-6.09-25.8c-0.67-2.82-1.23-5.55-1.68-8.17h-0.19c-0.8,4.47-1.38,7.45-1.73,8.94l-6.04,25.02h-12.95L235.68,102.92z"/>
		<path class="st2" d="M336.04,162.04c-7.74,0-13.64-2.67-17.7-8.02c-4.06-5.34-6.09-13.06-6.09-23.14c0-9.31,2.04-16.56,6.12-21.76
			c4.08-5.2,9.76-7.8,17.06-7.8c7.77,0,13.71,2.61,17.82,7.82c4.11,5.21,6.17,12.66,6.17,22.34s-2.02,17.19-6.07,22.54
			C349.29,159.37,343.53,162.04,336.04,162.04z M335.52,114.42c-5.25,0-7.87,5.55-7.87,16.64c0,7.15,0.66,11.91,1.99,14.3
			c1.33,2.39,3.25,3.59,5.78,3.59c2.72,0,4.8-1.2,6.26-3.59c1.46-2.39,2.18-7.07,2.18-14.04
			C343.86,120.05,341.08,114.42,335.52,114.42z"/>
		<path class="st2" d="M370.2,102.92h16.94c6.84,0,12.25,1.58,16.22,4.75c3.96,3.17,5.95,7.48,5.95,12.92c0,2.79-0.75,5.5-2.26,8.1
			c-1.5,2.61-3.69,4.57-6.57,5.9l11.61,26.01h-15.35l-11.75-26.27h-0.24v26.27H370.2V102.92z M384.74,114.07v13.7
			c6.43-0.11,9.64-2.15,9.64-6.09c0-2.68-0.74-4.59-2.23-5.75C390.66,114.78,388.19,114.16,384.74,114.07z"/>
		<path class="st2" d="M420.29,102.92h14.54v44.34h11.51v13.35h-26.05V102.92z"/>
		<path class="st2" d="M456.17,102.92h13.58c9.4,0,16.55,2.41,21.45,7.24c4.89,4.83,7.34,11.88,7.34,21.15
			c0,7.03-1.21,12.7-3.62,17.03s-5.79,7.45-10.12,9.38c-4.33,1.93-9.12,2.9-14.37,2.9h-14.25V102.92z M470.71,115.2v33.1
			c4.41-0.35,7.53-1.75,9.35-4.21c1.82-2.46,2.74-6.52,2.74-12.16c0-3.34-0.32-6.17-0.96-8.49c-0.64-2.32-1.59-4.1-2.85-5.36
			c-1.26-1.25-2.5-2.02-3.69-2.31C474.09,115.47,472.57,115.28,470.71,115.2z"/>
	</g>
	<g>
		<path class="st3" d="M212.86,185.12h90.23l-48.67,106.76h44.38v28.98h-92.85l48.26-106.66h-41.35V185.12z"/>
		<path class="st3" d="M367.26,324.21c-16.89,0-29.76-6.29-38.63-18.86c-8.86-12.57-13.29-30.72-13.29-54.45
			c0-21.89,4.45-38.96,13.35-51.2c8.9-12.23,21.3-18.35,37.21-18.35c16.96,0,29.92,6.14,38.89,18.4
			c8.97,12.27,13.45,29.79,13.45,52.57c0,22.78-4.41,40.45-13.24,53.02C396.17,317.93,383.59,324.21,367.26,324.21z M366.11,212.16
			c-11.45,0-17.17,13.05-17.17,39.15c0,16.81,1.45,28.03,4.34,33.65c2.89,5.63,7.1,8.44,12.61,8.44c5.93,0,10.48-2.81,13.66-8.44
			c3.18-5.63,4.76-16.64,4.76-33.04C384.32,225.42,378.25,212.16,366.11,212.16z"/>
		<path class="st3" d="M487.32,324.21c-16.89,0-29.76-6.29-38.62-18.86c-8.86-12.57-13.29-30.72-13.29-54.45
			c0-21.89,4.45-38.96,13.35-51.2c8.9-12.23,21.3-18.35,37.21-18.35c16.96,0,29.92,6.14,38.89,18.4
			c8.97,12.27,13.45,29.79,13.45,52.57c0,22.78-4.41,40.45-13.24,53.02C516.23,317.93,503.65,324.21,487.32,324.21z M486.17,212.16
			c-11.45,0-17.17,13.05-17.17,39.15c0,16.81,1.45,28.03,4.34,33.65c2.89,5.63,7.1,8.44,12.61,8.44c5.93,0,10.48-2.81,13.66-8.44
			c3.18-5.63,4.76-16.64,4.76-33.04C504.38,225.42,498.31,212.16,486.17,212.16z"/>
	</g>
	<g>
		<path class="st2" d="M225.05,395.35v-13.44c4.61,2.42,8.48,3.63,11.61,3.63c1.82,0,3.26-0.45,4.32-1.36
			c1.06-0.91,1.58-2.11,1.58-3.61c0-1.15-0.42-2.23-1.27-3.24c-0.85-1.01-2.31-2.23-4.39-3.67c-5.02-3.46-8.66-6.68-10.91-9.66
			s-3.38-6.3-3.38-9.96c0-4.98,1.74-9.04,5.23-12.19c3.49-3.14,8-4.71,13.53-4.71c4.09,0,8.16,0.79,12.19,2.38v12.92
			c-4.32-2.13-7.82-3.2-10.51-3.2c-1.79,0-3.21,0.4-4.25,1.19c-1.04,0.79-1.56,1.88-1.56,3.26c0,2.42,2.41,5.14,7.24,8.17
			c2.88,1.79,5.8,4.3,8.76,7.54c2.96,3.24,4.44,6.99,4.44,11.26c0,4.98-1.94,9.11-5.81,12.38c-3.87,3.27-8.78,4.91-14.73,4.91
			C233.07,397.94,229.04,397.08,225.05,395.35z"/>
		<path class="st2" d="M288.95,397.86c-7.74,0-13.64-2.67-17.7-8.02c-4.06-5.34-6.09-13.06-6.09-23.14c0-9.31,2.04-16.56,6.12-21.76
			c4.08-5.2,9.76-7.8,17.06-7.8c7.77,0,13.71,2.61,17.82,7.82c4.11,5.21,6.17,12.66,6.17,22.34s-2.02,17.19-6.07,22.54
			C302.2,395.18,296.44,397.86,288.95,397.86z M288.42,350.23c-5.25,0-7.87,5.55-7.87,16.64c0,7.14,0.66,11.91,1.99,14.3
			c1.33,2.39,3.25,3.59,5.78,3.59c2.72,0,4.8-1.19,6.26-3.59c1.46-2.39,2.18-7.07,2.18-14.04
			C296.77,355.87,293.99,350.23,288.42,350.23z"/>
		<path class="st2" d="M356.74,382.82v13.7c-3.07,0.89-5.82,1.34-8.25,1.34c-8.41,0-15.23-2.84-20.46-8.53
			c-5.23-5.69-7.84-13.17-7.84-22.45c0-8.61,2.64-15.72,7.92-21.33c5.28-5.6,11.95-8.4,20.01-8.4c3.13,0,6.01,0.37,8.64,1.12v13.74
			c-2.78-0.84-5.41-1.25-7.87-1.25c-3.77,0-6.91,1.56-9.4,4.67c-2.49,3.11-3.74,7.07-3.74,11.88c0,5.19,1.25,9.28,3.77,12.29
			c2.51,3.01,5.86,4.52,10.05,4.52C351.59,384.11,353.99,383.68,356.74,382.82z"/>
		<path class="st2" d="M366.67,338.74h14.54v57.69h-14.54V338.74z"/>
		<path class="st2" d="M395.41,338.74h29.41v12.27h-14.87v10.63h12.91v11.97h-12.91v10.5h14.97v12.32h-29.51V338.74z"/>
		<path class="st2" d="M431.58,338.74h34.69v13.18h-10.03v44.51h-14.73v-44.51h-9.93V338.74z"/>
		<path class="st2" d="M469.2,338.74h16.31c3.61,8.3,6.24,14.69,7.87,19.19h0.19c1.63-4.61,4.22-11,7.77-19.19h16.7l-17.17,31.59
			v26.1h-14.73v-26.1L469.2,338.74z"/>
	</g>
	<path d="M262.01,505.41l-11.1-6.74c-5.8-3.52-7.34-10.62-3.42-15.85l19.69-26.31c3.91-5.23,11.79-6.61,17.59-3.08l11.1,6.74
		c5.8,3.52,7.34,10.62,3.42,15.85l-19.69,26.31C275.69,507.55,267.81,508.93,262.01,505.41z"/>
	<path d="M481.81,74.6l11.63,6.05c6.15,3.2,14.02,1.3,17.58-4.24l19.29-30.1c3.55-5.54,1.44-12.63-4.71-15.83l-11.63-6.05
		c-6.15-3.2-14.02-1.3-17.58,4.24l-19.29,30.1C473.55,64.31,475.65,71.4,481.81,74.6z"/>
	<path class="st4" d="M278.81,491.37c148.76,54.39,315.14-12.45,367.37-135.61C692.4,246.77,640.17,115,517.78,52.28"/>
	<line class="st5" x1="561.82" y1="95.83" x2="579.68" y2="78.98"/>
	<line class="st5" x1="613.98" y1="155.31" x2="634.73" y2="141.41"/>
	<path class="st5" d="M645.87,232.46c12.97-0.46,24.97-2.46,37.54-3.33"/>
	<path class="st5" d="M637.24,320.65c13.6,2.35,28.6,3.35,42.28,5.87"/>
	<line class="st5" x1="601.22" y1="393.39" x2="635.85" y2="416.9"/>
	<path class="st5" d="M539.33,448.64c9.67,7.34,19.34,14.68,29,22.02c1.19,0.9,2.38,1.81,3.57,2.71"/>
	<path class="st5" d="M466.82,487.88c6.01,10.12,11.01,21.12,17.07,30.78"/>
	<path class="st5" d="M399.81,499.37c0.02,11.63,0.02,24.63,0,36.35"/>
	<line class="st5" x1="328.53" y1="490.79" x2="323.87" y2="520.88"/>
	<g>
		<path class="st6" d="M337.48,415.31l0.45,0.54c-2.21,1.9-4.11,2.84-5.69,2.84c-0.64,0-1.13-0.2-1.47-0.59
			c-0.34-0.39-0.51-1.02-0.51-1.88c0-1.74,0.59-3.47,1.76-5.2c1.32-1.96,2.89-2.94,4.73-2.94c0.64,0,1.13,0.14,1.47,0.43
			c0.34,0.29,0.51,0.69,0.51,1.19c0,0.53-0.2,1.05-0.61,1.56c-0.41,0.51-1.13,1.05-2.18,1.6c-0.52,0.27-1.64,0.75-3.36,1.45
			c-0.08,0.44-0.12,0.86-0.12,1.26c0,0.58,0.1,0.98,0.3,1.21s0.5,0.34,0.89,0.34c0.37,0,0.78-0.09,1.22-0.28
			C335.46,416.6,336.33,416.08,337.48,415.31z M332.74,413.54c1.45-0.58,2.55-1.22,3.28-1.89c0.5-0.47,0.75-0.94,0.75-1.4
			c0-0.35-0.1-0.63-0.3-0.84c-0.2-0.21-0.47-0.31-0.79-0.31c-0.33,0-0.66,0.11-0.98,0.34c-0.42,0.3-0.78,0.76-1.07,1.37
			C333.21,411.71,332.91,412.62,332.74,413.54z"/>
		<path class="st6" d="M345.76,408.11c0.8,0,1.42,0.14,1.86,0.42c0.44,0.28,0.66,0.6,0.66,0.97c0,0.22-0.09,0.41-0.28,0.57
			s-0.41,0.24-0.67,0.24c-0.17,0-0.32-0.04-0.45-0.1c-0.13-0.07-0.31-0.24-0.54-0.52c-0.44-0.53-0.88-0.79-1.31-0.79
			c-0.37,0-0.7,0.13-0.98,0.38c-0.28,0.26-0.43,0.57-0.43,0.96c0,0.33,0.09,0.66,0.27,0.97c0.18,0.31,0.64,0.82,1.37,1.52
			c1,0.96,1.5,1.87,1.5,2.73s-0.41,1.62-1.22,2.26c-0.81,0.65-1.86,0.97-3.14,0.97c-1.07,0-1.87-0.2-2.4-0.59
			c-0.52-0.39-0.79-0.88-0.79-1.46c0-0.29,0.1-0.52,0.3-0.71c0.2-0.19,0.44-0.28,0.73-0.28c0.25,0,0.47,0.08,0.65,0.23
			c0.18,0.15,0.27,0.33,0.27,0.53c0,0.08-0.01,0.19-0.02,0.32c-0.01,0.11-0.01,0.2-0.01,0.27c0,0.27,0.13,0.5,0.38,0.68
			c0.24,0.19,0.58,0.28,1,0.28c0.49,0,0.91-0.08,1.28-0.23c0.37-0.15,0.66-0.38,0.86-0.68s0.31-0.61,0.31-0.91
			c0-0.29-0.1-0.58-0.29-0.88c-0.19-0.29-0.63-0.78-1.31-1.45c-0.94-0.94-1.41-1.85-1.41-2.72c0-0.8,0.36-1.49,1.07-2.09
			C343.75,408.41,344.66,408.11,345.76,408.11z"/>
		<path class="st6" d="M352.48,406.23l2.15-0.74l-0.97,3.42h2.81l-0.22,0.87h-2.81l-1.18,4.09c-0.38,1.23-0.56,2.08-0.56,2.56
			c0,0.22,0.05,0.38,0.16,0.48c0.1,0.1,0.25,0.15,0.43,0.15c0.28,0,0.71-0.15,1.29-0.45c0.76-0.4,1.48-0.85,2.17-1.35l0.51,0.56
			c-1.98,1.34-3.3,2.16-3.97,2.46c-0.67,0.3-1.21,0.45-1.61,0.45c-0.33,0-0.6-0.11-0.79-0.33c-0.19-0.22-0.29-0.58-0.29-1.07
			c0-0.59,0.17-1.48,0.51-2.68l1.38-4.86h-2.19l0.24-0.87h2.2L352.48,406.23z"/>
		<path class="st6" d="M358.7,415.73c0.35,0,0.65,0.12,0.89,0.36c0.24,0.24,0.36,0.54,0.36,0.91c0,0.53-0.14,0.94-0.42,1.25
			c-0.28,0.3-0.63,0.45-1.06,0.45c-0.35,0-0.65-0.11-0.89-0.34s-0.36-0.51-0.36-0.86c0-0.51,0.17-0.96,0.5-1.34
			C357.96,415.87,358.29,415.73,358.7,415.73z"/>
		<path class="st6" d="M379,403.62h0.44l-1.87,6.59l-1.56,6.11c-0.15,0.51-0.23,0.86-0.23,1.04c0,0.14,0.08,0.25,0.23,0.34
			c0.15,0.08,0.5,0.15,1.04,0.2c0.41,0.03,0.8,0.08,1.19,0.15l-0.27,0.61c-1.94-0.19-3.3-0.28-4.06-0.28
			c-1.12,0-2.33,0.09-3.64,0.28l0.23-0.61c0.47-0.11,1.01-0.23,1.61-0.34c0.6-0.11,1-0.27,1.22-0.49c0.3-0.28,0.61-0.97,0.93-2.05
			l1.46-5.04c0.48-1.92,0.72-3.01,0.72-3.26c0-0.28-0.13-0.43-0.39-0.43c-0.2,0-1.11,0.33-2.72,0.98l-0.27-0.61
			c2.35-1.01,3.78-1.68,4.31-2.01C377.89,404.47,378.43,404.08,379,403.62z"/>
		<path class="st6" d="M381.6,418.69l0.16-0.73c1.5-0.06,2.77-0.31,3.82-0.75s1.94-1.07,2.68-1.87c0.74-0.8,1.33-1.88,1.78-3.22
			c-0.5,0.37-1,0.65-1.52,0.83c-0.51,0.19-1.04,0.28-1.57,0.28c-1.03,0-1.86-0.33-2.49-0.98c-0.63-0.65-0.95-1.59-0.95-2.81
			c0-1.67,0.55-3.07,1.64-4.2c0.95-0.99,2.16-1.49,3.63-1.49c1.25,0,2.27,0.43,3.07,1.28c0.8,0.85,1.2,2.04,1.2,3.56
			c0,1.79-0.52,3.5-1.56,5.11c-1.04,1.61-2.4,2.85-4.1,3.72S383.77,418.7,381.6,418.69z M390.3,411.18
			c0.24-1.27,0.37-2.31,0.37-3.14c0-1.29-0.22-2.22-0.65-2.78c-0.43-0.56-0.98-0.84-1.62-0.84c-0.71,0-1.26,0.3-1.68,0.9
			c-0.55,0.8-0.83,1.96-0.83,3.49c0,1.26,0.19,2.15,0.57,2.67s0.84,0.78,1.4,0.78c0.35,0,0.73-0.09,1.14-0.27
			C389.39,411.8,389.83,411.53,390.3,411.18z"/>
		<path class="st6" d="M397.27,407.42l-0.69-0.3c0.71-1.28,1.45-2.16,2.21-2.65c0.76-0.49,1.62-0.74,2.57-0.74
			c1.14,0,2.05,0.33,2.72,0.98c0.68,0.65,1.02,1.41,1.02,2.28c0,0.54-0.12,1.08-0.37,1.63s-0.65,1.13-1.21,1.73
			c-0.36,0.4-1.36,1.22-2.98,2.48c-2.19,1.71-3.72,3.09-4.61,4.14c1.18-0.05,2.4-0.07,3.66-0.07c0.41,0,0.76,0,1.06,0.01
			c0.66,0.02,1.11-0.03,1.35-0.17c0.24-0.14,0.65-0.6,1.21-1.39h0.93c-0.73,0.91-1.37,2.03-1.91,3.36
			c-0.64-0.11-1.32-0.19-2.03-0.24c-0.71-0.05-1.46-0.08-2.25-0.08c-0.93,0-2.3,0.05-4.1,0.16l0.27-0.77
			c0.82-1.1,2.05-2.34,3.68-3.72c1.62-1.37,2.66-2.32,3.13-2.87c0.68-0.79,1.17-1.54,1.48-2.24c0.23-0.52,0.35-1.03,0.35-1.51
			c0-0.73-0.22-1.32-0.66-1.76s-0.99-0.66-1.64-0.66c-0.54,0-1.07,0.18-1.59,0.53C398.36,405.88,397.83,406.51,397.27,407.42z"/>
		<path class="st6" d="M409.48,407.42l-0.69-0.3c0.71-1.28,1.45-2.16,2.21-2.65c0.76-0.49,1.62-0.74,2.57-0.74
			c1.14,0,2.05,0.33,2.72,0.98c0.68,0.65,1.02,1.41,1.02,2.28c0,0.54-0.12,1.08-0.37,1.63s-0.65,1.13-1.21,1.73
			c-0.36,0.4-1.36,1.22-2.98,2.48c-2.19,1.71-3.72,3.09-4.61,4.14c1.18-0.05,2.4-0.07,3.66-0.07c0.41,0,0.76,0,1.06,0.01
			c0.66,0.02,1.11-0.03,1.35-0.17c0.24-0.14,0.65-0.6,1.21-1.39h0.93c-0.73,0.91-1.37,2.03-1.91,3.36
			c-0.64-0.11-1.32-0.19-2.03-0.24c-0.71-0.05-1.46-0.08-2.25-0.08c-0.93,0-2.3,0.05-4.1,0.16l0.27-0.77
			c0.82-1.1,2.05-2.34,3.68-3.72c1.62-1.37,2.66-2.32,3.13-2.87c0.68-0.79,1.17-1.54,1.48-2.24c0.23-0.52,0.35-1.03,0.35-1.51
			c0-0.73-0.22-1.32-0.66-1.76s-0.99-0.66-1.64-0.66c-0.54,0-1.07,0.18-1.59,0.53C410.57,405.88,410.03,406.51,409.48,407.42z"/>
	</g>
</g>
<rect x="278.77" y="422.82" class="st7" width="234.45" height="21.57"/>
<text transform="matrix(1 0 0 1 278.7748 437.4527)" class="st8 st9">Education and Conservation</text>
</svg>
